<svg width="16" height="16" viewBox="0 0 16 16" fill="none" xmlns="http://www.w3.org/2000/svg">
<path d="M1.66667 5.90671L7.66667 9.37338C7.76801 9.43189 7.88298 9.4627 8 9.4627C8.11702 9.4627 8.23199 9.43189 8.33333 9.37338L14.3333 5.90671C14.4341 5.84854 14.5179 5.76502 14.5764 5.66444C14.6348 5.56386 14.666 5.44972 14.6667 5.33338C14.6671 5.21591 14.6365 5.1004 14.578 4.99854C14.5195 4.89669 14.4351 4.81212 14.3333 4.75338L8.33333 1.29338C8.23199 1.23487 8.11702 1.20406 8 1.20406C7.88298 1.20406 7.76801 1.23487 7.66667 1.29338L1.66667 4.75338C1.56493 4.81212 1.48052 4.89669 1.42199 4.99854C1.36345 5.1004 1.33287 5.21591 1.33333 5.33338C1.33404 5.44972 1.36517 5.56386 1.42365 5.66444C1.48213 5.76502 1.56591 5.84854 1.66667 5.90671ZM8 2.66671L12.6667 5.33338L8 8.00005L3.33333 5.33338L8 2.66671ZM13.6667 7.44671L8 10.6667L2.33333 7.42005C2.25724 7.37597 2.17319 7.34738 2.086 7.33592C1.99881 7.32447 1.91022 7.33037 1.82533 7.3533C1.74044 7.37623 1.66092 7.41572 1.59135 7.46951C1.52179 7.5233 1.46355 7.59032 1.42 7.66671C1.33309 7.81979 1.31024 8.00103 1.35645 8.17089C1.40266 8.34075 1.51418 8.48543 1.66667 8.57338L7.66667 12.04C7.76801 12.0986 7.88298 12.1294 8 12.1294C8.11702 12.1294 8.23199 12.0986 8.33333 12.04L14.3333 8.57338C14.4858 8.48543 14.5973 8.34075 14.6435 8.17089C14.6898 8.00103 14.6669 7.81979 14.58 7.66671C14.5364 7.59032 14.4782 7.5233 14.4086 7.46951C14.3391 7.41572 14.2596 7.37623 14.1747 7.3533C14.0898 7.33037 14.0012 7.32447 13.914 7.33592C13.8268 7.34738 13.7428 7.37597 13.6667 7.42005V7.44671ZM13.6667 10.1134L8 13.3334L2.33333 10.0867C2.25724 10.0426 2.17319 10.014 2.086 10.0026C1.99881 9.99113 1.91022 9.99704 1.82533 10.02C1.74044 10.0429 1.66092 10.0824 1.59135 10.1362C1.52179 10.19 1.46355 10.257 1.42 10.3334C1.33309 10.4865 1.31024 10.6677 1.35645 10.8376C1.40266 11.0074 1.51418 11.1521 1.66667 11.24L7.66667 14.7067C7.76801 14.7652 7.88298 14.796 8 14.796C8.11702 14.796 8.23199 14.7652 8.33333 14.7067L14.3333 11.24C14.4858 11.1521 14.5973 11.0074 14.6435 10.8376C14.6898 10.6677 14.6669 10.4865 14.58 10.3334C14.5364 10.257 14.4782 10.19 14.4086 10.1362C14.3391 10.0824 14.2596 10.0429 14.1747 10.02C14.0898 9.99704 14.0012 9.99113 13.914 10.0026C13.8268 10.014 13.7428 10.0426 13.6667 10.0867V10.1134Z" fill="white"/>
</svg>
