<svg width="16" height="16" viewBox="0 0 16 16" fill="none" xmlns="http://www.w3.org/2000/svg">
<g id="User Interface / Share">
<path id="Vector" d="M12 9.33333C11.6061 9.33593 11.2177 9.42576 10.8627 9.59636C10.5076 9.76696 10.1948 10.0141 9.94668 10.32L6.54667 8.75333C6.70653 8.26383 6.70653 7.73616 6.54667 7.24666L9.94668 5.68C10.3478 6.16397 10.9069 6.49071 11.5254 6.60255C12.144 6.7144 12.7821 6.60415 13.3273 6.29126C13.8725 5.97838 14.2896 5.48298 14.505 4.89249C14.7205 4.302 14.7204 3.65438 14.5049 3.06393C14.2893 2.47348 13.8721 1.97816 13.3269 1.66537C12.7817 1.35259 12.1435 1.24246 11.525 1.35441C10.9064 1.46636 10.3474 1.79321 9.94636 2.27726C9.54537 2.76131 9.32826 3.37145 9.33334 3.99999C9.33535 4.15882 9.35096 4.31717 9.38001 4.47333L5.86001 6.09333C5.48473 5.72638 5.00951 5.47834 4.49388 5.38028C3.97825 5.28222 3.44515 5.33851 2.96138 5.54208C2.4776 5.74566 2.06465 6.08747 1.77428 6.5247C1.4839 6.96193 1.32901 7.47513 1.32901 8C1.32901 8.52486 1.4839 9.03806 1.77428 9.47529C2.06465 9.91252 2.4776 10.2543 2.96138 10.4579C3.44515 10.6615 3.97825 10.7178 4.49388 10.6197C5.00951 10.5217 5.48473 10.2736 5.86001 9.90666L9.38001 11.5267C9.35096 11.6828 9.33535 11.8412 9.33334 12C9.33334 12.5274 9.48974 13.043 9.78276 13.4815C10.0758 13.92 10.4923 14.2618 10.9795 14.4637C11.4668 14.6655 12.003 14.7183 12.5202 14.6154C13.0375 14.5125 13.5127 14.2586 13.8856 13.8856C14.2586 13.5127 14.5125 13.0375 14.6154 12.5202C14.7183 12.003 14.6655 11.4668 14.4637 10.9795C14.2619 10.4922 13.9201 10.0758 13.4815 9.78274C13.043 9.48973 12.5274 9.33333 12 9.33333ZM12 2.66666C12.2637 2.66666 12.5215 2.74486 12.7408 2.89137C12.96 3.03788 13.1309 3.24612 13.2318 3.48975C13.3328 3.73339 13.3592 4.00147 13.3077 4.26012C13.2563 4.51876 13.1293 4.75633 12.9428 4.9428C12.7563 5.12927 12.5188 5.25626 12.2601 5.30771C12.0015 5.35916 11.7334 5.33275 11.4898 5.23183C11.2461 5.13092 11.0379 4.96002 10.8914 4.74076C10.7449 4.52149 10.6667 4.2637 10.6667 3.99999C10.6667 3.64637 10.8072 3.30723 11.0572 3.05719C11.3072 2.80714 11.6464 2.66666 12 2.66666ZM4.00001 9.33333C3.7363 9.33333 3.47851 9.25513 3.25925 9.10862C3.03998 8.96211 2.86909 8.75387 2.76817 8.51024C2.66725 8.2666 2.64085 7.99852 2.69229 7.73987C2.74374 7.48123 2.87073 7.24366 3.0572 7.05719C3.24367 6.87072 3.48125 6.74373 3.73989 6.69228C3.99853 6.64083 4.26662 6.66724 4.51025 6.76816C4.75389 6.86907 4.96213 7.03997 5.10863 7.25923C5.25514 7.4785 5.33334 7.73629 5.33334 8C5.33334 8.35362 5.19287 8.69276 4.94282 8.9428C4.69277 9.19285 4.35363 9.33333 4.00001 9.33333ZM12 13.3333C11.7363 13.3333 11.4785 13.2551 11.2592 13.1086C11.04 12.9621 10.8691 12.7539 10.7682 12.5102C10.6673 12.2666 10.6408 11.9985 10.6923 11.7399C10.7437 11.4812 10.8707 11.2437 11.0572 11.0572C11.2437 10.8707 11.4812 10.7437 11.7399 10.6923C11.9985 10.6408 12.2666 10.6672 12.5103 10.7682C12.7539 10.8691 12.9621 11.04 13.1086 11.2592C13.2551 11.4785 13.3333 11.7363 13.3333 12C13.3333 12.3536 13.1929 12.6928 12.9428 12.9428C12.6928 13.1929 12.3536 13.3333 12 13.3333Z" fill="white"/>
</g>
</svg>
